# xmcd
#
# Track frame offsets:
#	150
#	17435
#	37701
#	48371
#	62862
#	87706
#	99995
#	115735
#
# Disc length: 1789 seconds
#
# Revision: 0
# Processed by: cddbd v1.4PL0 Copyright (c) Steve Scherf et al.
# Submitted via: EasyCDDAExtractor 4.6.0.1
#
DISCID=5906fb08
DTITLE=Jimi Hocking - AKA Jimi the Human
DYEAR=2003
DGENRE=Blues
TTITLE0=Self help song
TTITLE1=Keep my collar up
TTITLE2=Always in between
TTITLE3=Shooting stars in my backyard
TTITLE4=Bitter tears
TTITLE5=The gift
TTITLE6=No turning back
TTITLE7=Scary girl
EXTD=
EXTT0=
EXTT1=
EXTT2=
EXTT3=
EXTT4=
EXTT5=
EXTT6=
EXTT7=
PLAYORDER=
